<?xml version="1.0" standalone="no"?>
<!DOCTYPE svg PUBLIC "-//W3C//DTD SVG 20010904//EN"
 "http://www.w3.org/TR/2001/REC-SVG-20010904/DTD/svg10.dtd">
<svg version="1.0" xmlns="http://www.w3.org/2000/svg"
 width="500.000000pt" height="500.000000pt" viewBox="0 0 500.000000 500.000000"
 preserveAspectRatio="xMidYMid meet">
<metadata>
Created by potrace 1.14, written by Peter Selinger 2001-2017
</metadata>
<g transform="translate(0.000000,500.000000) scale(0.100000,-0.100000)"
fill="#000000" stroke="none">
<path d="M2325 4773 c-41 -3 -200 -24 -280 -38 -52 -8 -272 -68 -304 -81 -20
-9 -61 -24 -91 -34 -75 -24 -282 -128 -393 -197 -296 -182 -577 -463 -760
-759 -169 -274 -271 -550 -328 -891 -18 -105 -22 -169 -22 -358 0 -243 17
-387 65 -565 11 -41 21 -79 22 -85 7 -35 72 -216 103 -285 56 -125 80 -170
144 -276 100 -167 209 -305 354 -449 248 -248 511 -418 834 -541 120 -46 351
-109 436 -119 28 -3 75 -11 105 -17 32 -7 153 -11 290 -11 253 0 361 13 580
68 206 51 474 163 649 271 298 185 597 483 783 782 42 69 140 261 170 335 64
160 126 379 143 502 3 28 9 64 11 80 15 83 22 237 18 388 -2 92 -5 171 -8 175
-2 4 -7 35 -10 70 -23 220 -111 503 -230 740 -117 234 -250 417 -441 607 -255
255 -535 433 -869 555 -97 35 -278 85 -347 95 -24 4 -82 13 -128 21 -80 14
-384 24 -496 17z"/>
</g>
</svg>
